<?xml version="1.0" encoding="utf-8"?>
<!-- Generator: Adobe Illustrator 27.3.1, SVG Export Plug-In . SVG Version: 6.00 Build 0)  -->
<svg version="1.1" id="Layer_1" xmlns="http://www.w3.org/2000/svg" xmlns:xlink="http://www.w3.org/1999/xlink" x="0px" y="0px"
	 viewBox="0 0 96 90" style="enable-background:new 0 0 96 90;" xml:space="preserve">
<style type="text/css">
	.st0{stroke:#000000;stroke-width:0.9998;stroke-miterlimit:10;}
	.st1{opacity:0.43;}
	.st2{clip-path:url(#SVGID_00000086677520811197920480000004972166911320557991_);}
	.st3{fill:#00579F;}
	.st4{fill:#FAA61A;}
	.st5{opacity:0.71;}
	.st6{clip-path:url(#SVGID_00000065046634657881723190000009553983344533571239_);}
	.st7{fill:#FFFFFF;}
	.st8{clip-path:url(#SVGID_00000032622632194112666410000008849735072914254504_);}
	.st9{fill:#5F6368;}
	.st10{fill:#4285F4;}
	.st11{fill:#34A853;}
	.st12{fill:#FBBC04;}
	.st13{fill:#EA4335;}
	.st14{clip-path:url(#SVGID_00000084529711147647219960000017818771242375008152_);}
	.st15{fill:#FFFFFF;stroke:#FFFFFF;stroke-width:0.2716;stroke-miterlimit:10;}
	.st16{fill:#FF5A00;stroke:#000000;stroke-width:0.2716;stroke-miterlimit:10;}
	.st17{fill:#EB001B;stroke:#000000;stroke-width:0.2716;stroke-miterlimit:10;}
	.st18{fill:#F79E1B;stroke:#000000;stroke-width:0.2716;stroke-miterlimit:10;}
	.st19{clip-path:url(#SVGID_00000093864370757994816970000005741825543050595774_);}
	.st20{fill:#003087;}
	.st21{fill:#0070E0;}
	.st22{fill:#001C64;}
	.st23{opacity:0.46;}
	.st24{opacity:0.56;}
	.st25{fill:#33220B;}
	.st26{font-family:'Castellar';}
	.st27{font-size:192.1376px;}
	.st28{fill:#FDFF68;}
	.st29{fill:#610000;}
	.st30{opacity:0.41;fill:none;stroke:#808080;stroke-width:1.0003;stroke-miterlimit:10;}
</style>
<g>
	<rect x="-829.5" y="-427.5" class="st0" width="1726" height="971"/>
	<g id="social_media" class="st1">
		<g>
			<defs>
				<rect id="SVGID_1_" x="-650" y="484" width="38" height="13"/>
			</defs>
			<clipPath id="SVGID_00000036245921241799152020000008684252996257496978_">
				<use xlink:href="#SVGID_1_"  style="overflow:visible;"/>
			</clipPath>
			<g style="clip-path:url(#SVGID_00000036245921241799152020000008684252996257496978_);">
				<path class="st3" d="M-633.3,497h-3.1l2-13h3.1L-633.3,497z"/>
				<path class="st3" d="M-622.1,484.6c-0.6-0.3-1.6-0.5-2.8-0.5c-3.1,0-5.2,1.8-5.2,4.3c0,1.8,1.5,2.9,2.7,3.5
					c1.2,0.6,1.6,1,1.6,1.6c0,0.9-1,1.3-1.9,1.3c-1.2,0-1.9-0.2-2.9-0.7l-0.4-0.2l-0.4,2.9c0.7,0.4,2.1,0.7,3.5,0.7
					c3.3,0,5.4-1.7,5.4-4.4c0-1.5-0.8-2.6-2.6-3.5c-1.1-0.6-1.8-1-1.8-1.6c0-0.5,0.6-1.1,1.8-1.1c1,0,1.8,0.2,2.3,0.5l0.3,0.1
					L-622.1,484.6z"/>
				<path class="st3" d="M-617.9,493c0.3-0.7,1.2-3.6,1.2-3.6c0,0,0.3-0.8,0.4-1.2l0.2,1.1c0,0,0.6,3.1,0.7,3.7
					C-615.9,493-617.3,493-617.9,493z M-614.1,484h-2.4c-0.7,0-1.3,0.2-1.6,1.1l-4.7,11.9h3.2c0,0,0.6-1.6,0.7-2c0.4,0,3.7,0,4.1,0
					c0.1,0.5,0.4,2,0.4,2h2.8L-614.1,484z"/>
				<path class="st3" d="M-639,484l-3.1,8.9l-0.3-1.8c-0.6-2.1-2.4-4.3-4.3-5.5l2.8,11.4h3.3l4.9-13H-639z"/>
				<path class="st4" d="M-644.9,484h-5l-0.1,0.3c3.9,1.1,6.5,3.6,7.5,6.7l-1.1-5.9C-643.7,484.3-644.2,484-644.9,484z"/>
			</g>
		</g>
		<g>
			<g class="st5">
				<defs>
					<rect id="SVGID_00000058576156901513071420000009308271248531968901_" x="-610" y="482" class="st5" width="37" height="17"/>
				</defs>
				<use xlink:href="#SVGID_00000058576156901513071420000009308271248531968901_"  style="overflow:visible;"/>
				<clipPath id="SVGID_00000076566080520037673340000018103571157358723495_">
					<use xlink:href="#SVGID_00000058576156901513071420000009308271248531968901_"  style="overflow:visible;"/>
				</clipPath>
				<g style="clip-path:url(#SVGID_00000076566080520037673340000018103571157358723495_);">
					<path class="st7" d="M-602.8,484.4c-0.4,0.6-1.1,1-1.8,1c-0.1-0.8,0.3-1.6,0.7-2.1c0.4-0.6,1.2-1,1.8-1
						C-602,483-602.3,483.8-602.8,484.4z M-602.1,485.5c-1-0.1-1.9,0.6-2.3,0.6c-0.5,0-1.2-0.6-2-0.6c-1,0-2,0.7-2.5,1.7
						c-1.1,2.1-0.3,5.2,0.8,6.9c0.5,0.8,1.1,1.8,1.9,1.7c0.8,0,1.1-0.6,2-0.6c0.9,0,1.2,0.6,2,0.5c0.8,0,1.4-0.8,1.9-1.7
						c0.6-1,0.8-1.9,0.8-1.9c0,0-1.6-0.7-1.6-2.8c0-1.7,1.3-2.6,1.3-2.6C-600.6,485.7-601.7,485.6-602.1,485.5z M-596,483v13h2v-5
						h1.9c2.2,0.5,3.8-1.2,3.8-3.7s-1.5-4.1-3.7-4.3H-596z M-595,485h2c1.5,0,2.4,0.9,2.4,2.5c0,1.6-0.9,2.5-2.4,2.5h-2V485z
						 M-585.2,495.9c1.1,0,2.6-1.9,2.6-1.9h-0.4v2h2v-6.5c0,0-1.2-3-3.2-3c-1.9,0-3.2,1.2-3.3,2.5h1.6c0.1-0.4,0.8-1,1.7-1
						c1.1,0,1.7,0.6,1.3,1.6v0.7l-1.8,0.1c-2,0.1-3.1,1.1-3.1,2.7C-587.9,494.8-586.8,495.9-585.2,495.9z M-583,492.2
						c0,1.1-0.8,2.1-1.9,2.2c-1,0.1-1.7-0.5-1.7-1.3c0-0.8,0.6-1.3,1.7-1.3l1.9-0.1V492.2z M-578.4,498.8c1.6,0,2.4-0.7,3-2.8
						l2.9-9.1h-1.7l-1.9,7h0l-1.9-7h-1.7l2.8,8.6l-0.1,0.5c-0.3,0.9-0.7,1.2-1.4,1.2c-0.1,0-0.4,0-0.5,0v1.4
						C-578.9,498.8-578.5,498.8-578.4,498.8z"/>
				</g>
			</g>
		</g>
		<g>
			<defs>
				<rect id="SVGID_00000114771544696007655240000004337526775397669285_" x="-569" y="481" width="36" height="17"/>
			</defs>
			<clipPath id="SVGID_00000032645045700371911560000004731365407021733021_">
				<use xlink:href="#SVGID_00000114771544696007655240000004337526775397669285_"  style="overflow:visible;"/>
			</clipPath>
			<g style="clip-path:url(#SVGID_00000032645045700371911560000004731365407021733021_);">
				<path class="st9" d="M-552,489.8v4.2h-1v-10h3c0.9-0.4,1.7-0.1,2.3,0.5c0.6,0.5,0.9,1.4,0.9,2.2c0,0.9-0.3,1.6-0.9,2.2
					s-1.4,0.9-2.3,0.9L-552,489.8z M-552,485v4h2.1c0.5-0.5,1-0.7,1.3-1.1c0.7-0.7,0.7-1.8,0-2.5l0,0c-0.4-0.4-0.8-0.6-1.3-0.4H-552
					z"/>
				<path class="st9" d="M-543.7,486.7c1,0,1.8,0.3,2.3,0.8c0.6,0.5,0.3,2.2,0.3,2.2v4.3h-1v-1h0.2c0,0-1.3,1.2-2.2,1.2
					c-0.8,0-1.4-0.2-2-0.7c-0.5-0.5-0.8-1.1-0.8-1.8c0-0.7,0.3-1.3,0.8-1.8c0.5-0.5,1.3-0.6,2.2-0.6c0.8,0,1.4,0.1,1.8,0.5v-0.3
					c0.2-0.5,0-0.9-0.4-1.2c-0.4-0.3-0.8-0.5-1.3-0.5c-0.8,0-1.3,0.3-1.8,0.9l-1.2-0.7C-545.9,487.1-544.9,486.7-543.7,486.7z
					 M-545.4,491.8c0,0.4,0.2,0.7,0.4,0.9c0.3,0.2,0.7,0.4,1,0.4c0.5,0,1.1-0.2,1.5-0.6c0.4-0.4,0.7-0.9,0.7-1.4
					c-0.4-0.3-1-0.5-1.8-0.5c-0.5,0-1,0.1-1.3,0.4C-545.2,491.1-545.4,491.4-545.4,491.8z"/>
				<path class="st9" d="M-533,487l-4.4,10h-1.3l1.6-3.5l-2.9-6.5h1.1l2.1,5h0l2-5L-533,487L-533,487z"/>
				<path class="st10" d="M-557,488.3c0-0.4,0-0.9-0.1-1.3h-5.9v3h3c-0.1,0.7-1,1.8-1,1.8v1.2h2.1C-557.7,491.9-557,490.2-557,488.3
					z"/>
				<path class="st11" d="M-562.7,494.8c1.6,0,3-0.5,4-1.4l-1.9-1.5c-0.5,0.4-1.2,0.6-2,0.6c-1.5,0-2.9-1-3.3-2.5h-2v1.5
					C-567,493.6-564.9,494.8-562.7,494.8z"/>
				<path class="st12" d="M-567,489.8c-0.3-0.7-0.3-1.5,0-2.3V486h-2c-0.9,1.7-0.9,3.6,0,5.4L-567,489.8z"/>
				<path class="st13" d="M-563.2,485.2c0.9,0,1.7,0.3,2.3,0.9l1.7-1.7c-1.1-1-2.5-1.6-4-1.5c-2.2,0-4.3,1.3-5.3,3.3l2,1.5
					C-566.1,486.2-564.7,485.2-563.2,485.2z"/>
			</g>
		</g>
		<g>
			<defs>
				<rect id="SVGID_00000180359892535406743790000014718302851848734100_" x="-526" y="481" width="22" height="17"/>
			</defs>
			<clipPath id="SVGID_00000096779590367075972680000002551470919472231596_">
				<use xlink:href="#SVGID_00000180359892535406743790000014718302851848734100_"  style="overflow:visible;"/>
			</clipPath>
			<g style="clip-path:url(#SVGID_00000096779590367075972680000002551470919472231596_);">
				<path class="st15" d="M-522,498v-1.2c-0.4-0.4-0.6-0.7-1.1-0.7c-0.2,0-0.5,0.1-0.6,0.3c-0.1-0.2-0.3-0.3-0.6-0.3
					c-0.2,0-1.7,0.3-1.7,0.3V496h1v2l0,0v-1c0.2-0.3,0.3-0.5,0.6-0.5c0.3,0,0.4,0.2,0.4,0.5v1l0,0v-1c0.4-0.3,0.6-0.5,0.8-0.5
					c0.3,0,0.4,0.2,0.2,0.5v1H-522z M-516.6,495h-0.4v1l0,0l0,0h-1l0,0h1v1.4c-0.6,0.4-0.4,0.7,0,0.7c0.2,0,0.4-0.1,0.5-0.1
					l-0.1-0.3c-0.1,0.1-0.2,0.1-0.3,0.1c-0.2,0,0-0.3,0-0.3V497h1v-2H-516.6z M-513.3,496.1c-0.2,0-0.4,0.1-0.7,0.3V496h1v2h-1v-1
					c0.3-0.3,0.4-0.5,0.6-0.5c0.1,0,0.2,0,0.2,0l0.1-0.4C-513.1,496.1-513.2,496.1-513.3,496.1z M-518.3,496.3
					c-0.2-0.1-0.4-0.2-0.7-0.2c-0.4,0-0.7,0.2-0.7,0.6c0,0.3,0.2,0.5,0.6,0.5l0.2,0c0.2,0,0.3,0.1,0.3,0.2c0,0.1-0.1,0.2-0.4,0.2
					c-0.3,0-0.5-0.1-0.6-0.2l-0.2,0.3c0.2,0.2,0.5,0.2,0.8,0.2c0.5,0,0.8-0.2,0.8-0.6c0-0.3-0.2-0.5-0.6-0.5l-0.2,0
					c-0.2,0-0.3-0.1-0.3-0.2c0-0.1,0.1-0.2,0.3-0.2c0.2,0,0.4,0.1,0.6,0.2L-518.3,496.3z M-507.9,496.1c-0.2,0-0.4,0.1-1.1,0.3V496
					l0,0v2l0,0v-1c0.7-0.3,0.8-0.5,1-0.5c0.1,0,0.2,0,0.2,0l0.1-0.4C-507.7,496.1-507.8,496.1-507.9,496.1z M-512.9,497.1
					c0,0.5,0.4,0.9,1,0.9c0.3,0,0.4-0.1,0.6-0.2l-0.2-0.3c-0.1,0.1-0.3,0.2-0.5,0.2c-0.3,0-0.5-0.2-0.5-0.6c0-0.3,0.2-0.6,0.5-0.6
					c0.2,0,0.3,0.1,0.5,0.2l0.2-0.3c-0.2-0.2-0.4-0.2-0.6-0.2C-512.5,496.1-512.9,496.5-512.9,497.1z M-509,497.1V496l0,0v0.4
					c-0.8-0.2-1-0.3-1.2-0.3c-0.5,0-0.9,0.4-0.9,0.9s0.4,0.9,0.9,0.9c0.3,0,0.4-0.1,1.2-0.3v0.3l0,0V497.1z M-510.7,497.1
					c0-0.3,0.2-0.6,0.5-0.6c0.3,0,0.5,0.2,0.5,0.6c0,0.3-0.2,0.6-0.5,0.6C-510.5,497.6-510.7,497.4-510.7,497.1z M-515.8,495.9
					c-0.5,0-0.9,0.4-0.9,0.9c0,0.6,0.4,0.9,0.9,0.9c0.3,0,0.5-0.1,0.7-0.2l-0.2-0.3c-0.1,0.1-0.3,0.2-0.5,0.2
					c-0.2,0-0.5-0.1-0.5-0.4h1.3c0-0.1,0-0.1,0-0.2C-515,496.3-515.3,495.9-515.8,495.9z M-515.4,496.6c0.2,0,0.4,0.2,0.4,0.4h-0.9
					C-515.8,496.8-515.7,496.6-515.4,496.6z M-506,497.1V495h1v1.4c-1.2-0.2-1.4-0.3-1.6-0.3c-0.5,0-0.9,0.4-0.9,0.9
					s0.4,0.9,0.9,0.9c0.3,0,0.4-0.1,1.6-0.3v0.3h-1V497.1z M-507.1,497.1c0-0.3,0.2-0.6,0.5-0.6c0.3,0,0.5,0.2,0.5,0.6
					c0,0.3-0.2,0.6-0.5,0.6C-506.9,497.6-507.1,497.4-507.1,497.1z M-520,497.1V496l0,0v0.4c-0.7-0.2-0.9-0.3-1.1-0.3
					c-0.5,0-0.9,0.4-0.9,0.9s0.4,0.9,0.9,0.9c0.3,0,0.4-0.1,1.1-0.3v0.3l0,0V497.1z M-521.6,497.1c0-0.3,0.2-0.6,0.5-0.6
					c0.3,0,0.5,0.2,0.5,0.6c0,0.3-0.2,0.6-0.5,0.6C-521.4,497.6-521.6,497.4-521.6,497.1z"/>
				<path class="st16" d="M-512,482h-6v11h6V482z"/>
				<path class="st17" d="M-518,487.7c0-2.2,1-4.1,2.6-5.3c-1.1-0.9-2.6-1.5-4.1-1.5c-3.7,0-6.7,3-6.7,6.8s3,6.8,6.7,6.8
					c1.6,0,3-0.5,4.1-1.5C-517,491.8-518,489.9-518,487.7z"/>
				<path class="st18" d="M-504.6,487.7c0,3.8-3,6.8-6.7,6.8c-1.6,0-3-0.5-4.1-1.5c1.6-1.2,2.6-3.2,2.6-5.3s-1-4.1-2.6-5.3
					c1.1-0.9,2.6-1.5,4.1-1.5C-507.6,480.9-504.6,484-504.6,487.7z"/>
			</g>
		</g>
		<g>
			<defs>
				<rect id="SVGID_00000039114174143857936520000017172950848167801767_" x="-498" y="480" width="25" height="18"/>
			</defs>
			<clipPath id="SVGID_00000063617018959584617650000014327351349876777639_">
				<use xlink:href="#SVGID_00000039114174143857936520000017172950848167801767_"  style="overflow:visible;"/>
			</clipPath>
			<g style="clip-path:url(#SVGID_00000063617018959584617650000014327351349876777639_);">
				<path class="st20" d="M-497.5,493C-497.5,493-497.5,493-497.5,493c-0.1,0-0.1,0.1-0.1,0.1l-0.8,3.8c0,0,0,0,0,0c0,0,0,0,0,0
					c0,0,0,0,0,0s0,0,0.1,0h1c0,0,0.1,0.2,0.1,0.2s0,0,0.1-0.1l0.2-1.2c0,0,0-0.1,0.1-0.1c0,0,0.1,0.1,0.1,0.1h0.9
					c1.1,0,2-0.6,2.2-1.4c0.2-0.8-0.7-1.6-1.9-1.6H-497.5z M-496.4,494h0.7c0.5,0,0.7,0.2,0.7,0.5c-0.1,0.3-0.3,0.5-0.9,0.5h-0.7
					L-496.4,494z M-491.7,493.9c-0.3,0-0.5,0-0.9,0.1c-0.7,0.2-1.1,0.7-1.3,1.1c0,0-0.5,1.1,0.6,1.7c0,0,1,0.6,2.1,0l0,0.1
					c0,0,0,0,0,0c0,0,0,0,0,0c0,0,0,0,0,0c0,0,0,0,0.1,0h0.9c0.1,0,0.1,0,0.1-0.1l0.6-2.8c0,0,0,0,0,0c0,0,0,0,0,0c0,0,0,0,0,0
					c0,0,0,0-0.1,0h-0.9c-0.1,0-0.1,0-0.1,0.1l0,0.1h0C-490.5,494.2-490.9,493.9-491.7,493.9L-491.7,493.9z M-491.6,495
					c0.1,0,0.2,0,0.3,0c0.4,0.1,0.6,0.4,0.6,0.7c-0.1,0.4-0.5,0.7-1.1,0.7c-0.1,0-0.2,0-0.3,0c-0.4-0.1-0.6-0.4-0.6-0.7
					C-492.6,495.3-492.2,495-491.6,495z"/>
				<path class="st21" d="M-483.8,493c-0.1,0-0.1,0-0.1,0.1l-0.8,3.8c0,0,0,0,0,0c0,0,0,0,0,0s0,0,0,0c0,0,0,0,0.1,0h1
					c0,0,0.1,0.2,0.1,0.1l0.2-1.2c0,0,0-0.1,0.1-0.1c0,0,0.1,0.1,0.1,0.1h0.9c1.1,0,2-0.6,2.2-1.4c0.2-0.8-0.7-1.6-1.9-1.6H-483.8z
					 M-482.7,494h0.7c0.5,0,0.7,0.2,0.7,0.5c-0.1,0.3-0.3,0.5-0.9,0.5h-0.7L-482.7,494z M-478,493.9c-0.3,0-0.5,0-0.9,0.1
					c-0.7,0.2-1.1,0.7-1.3,1.1c0,0-0.5,1.1,0.6,1.7c0,0,1,0.6,2.1,0l0,0.1c0,0,0,0,0,0c0,0,0,0,0,0s0,0,0,0c0,0,0,0,0.1,0h0.9
					c0,0,0.1,0,0.1,0c0,0,0,0,0-0.1l0.6-2.8c0,0,0,0,0,0c0,0,0,0,0,0c0,0,0,0,0,0c0,0,0,0-0.1,0h-0.9c-0.1,0-0.1,0-0.1,0.1l0,0.1
					C-476.9,494.2-477.3,493.9-478,493.9z M-478,495c0.1,0,0.2,0,0.3,0c0.4,0.1,0.6,0.4,0.6,0.7c-0.1,0.4-0.5,0.7-1.1,0.7
					c-0.1,0-0.2,0-0.3,0c-0.4-0.1-0.6-0.4-0.6-0.7C-479,495.3-478.5,495-478,495z"/>
				<path class="st20" d="M-488.9,494C-488.9,494-488.9,494-488.9,494C-488.9,494-488.9,494-488.9,494c-0.1,0-0.1,0.1-0.1,0.1
					c0,0,0,0,0,0l1.1,2.5l-1,1.2c0,0.1,0,0.1,0.1,0.1h1.1c0,0,0.1,0,0.1,0c0,0,0.1,0,0.1-0.1l3-3.8c0-0.1,0-0.1-0.1-0.1h-1.1
					c0,0-0.1,0-0.1,0c0,0-0.1,0-0.1,0.1l-1.2,1.5l-0.6-1.5c0,0-0.1-0.1-0.1-0.1L-488.9,494z"/>
				<path class="st21" d="M-474.5,493c-0.1,0-0.1,0-0.1,0.1l-0.8,3.8c0,0,0,0,0,0c0,0,0,0,0,0c0,0,0,0,0,0c0,0,0,0,0.1,0h0.9
					c0.1,0,0.1,0,0.1-0.1l0.8-3.8c0,0,0,0,0,0c0,0,0,0,0,0s0,0,0,0c0,0,0,0-0.1,0H-474.5z"/>
				<path class="st22" d="M-486.7,482c-0.2,0-0.3,0.1-0.4,0.2l-0.6,3l-0.6,2.8l0,0l0,0l0.6-2.8c0-0.1,0.2-0.2,0.4-0.2h1.8
					c1.8,0,3.4-1,3.6-2.4c0-0.1,0-0.2,0-0.3v0h0c-0.5-0.2-1-0.3-1.6-0.3L-486.7,482z"/>
				<path class="st21" d="M-481.7,483.3c0,0.1,0,0.2,0,0.3c-0.3,1.4-1.8,2.4-3.6,2.4h-2.2c-0.2,0-0.3,0.1-0.4,0.2l-0.6,2.8l-0.4,1.7
					c0,0,0,0.1,0,0.1s0,0.1,0.1,0.1c0,0,0.1,0,0.1,0.1c0,0,0.1,0,0.1,0h2.1c0.2,0,0.3-0.1,0.4-0.2l0.5-2.5c0-0.1,0.1-0.1,0.1-0.2
					c0.1,0,0.2-0.1,0.2-0.1h1.4c1.8,0,3.4-1,3.6-2.4C-479.9,484.6-480.6,483.7-481.7,483.3z"/>
				<path class="st20" d="M-489.2,480c-0.1,0-0.2,0-0.3,0.1c-0.1,0.1-0.1,0.1-0.1,0.2l-1.7,8.4c0,0,0,0.1,0,0.1c0,0,0,0.1,0.1,0.1
					s0.1,0.1,0.1,0.1s0.1,0,0.1,0h2.5l0.6-2.8l0.6-3c0-0.1,0.2-0.2,0.4-0.2h3.6c0,0,1.2-0.5,1.7-0.3c0-1.4-3.4-2.7-3.4-2.7
					L-489.2,480z"/>
			</g>
		</g>
	</g>
	<g id="Logo">
		
			<image style="overflow:visible;" width="1250" height="1250" xlink:href="C:\Users\BOOPATHY E\Downloads\Dark Purple And Gold Modern Gold Loan Logo\bpy creation.png"  transform="matrix(6.572296e-02 0 0 6.848788e-02 -280 18)">
		</image>
		<rect x="-285" y="9" class="st23" width="82" height="98"/>
	</g>
	<text transform="matrix(0.661 0 0 1 -712.3852 122.5868)" class="st24"><tspan x="0" y="0" class="st25 st26 st27">Think</tspan><tspan x="716.4" y="0" class="st28 st26 st27"> </tspan><tspan x="785.5" y="0" class="st29 st26 st27">big</tspan></text>
	<path class="st30" d="M758,503.5l-1417,0c-63.8,0-115.5-51.7-115.5-115.5l0-690c0-63.8,51.7-115.5,115.5-115.5l1417,0
		c63.8,0,115.5,51.7,115.5,115.5l0,690C873.5,451.8,821.8,503.5,758,503.5z"/>
	<text transform="matrix(1 0 0 1 -391.0695 164.1194)" style="fill:#420001; font-family:'BernardMT-Condensed'; font-size:27px;">© 2025 Bpy creation. All rights reserved.</text>
	<text transform="matrix(1 0 0 1 -259.9751 245.8301)" style="font-family:'BernardMT-Condensed'; font-size:24px;">Lorem ipsum</text>
	
		<image style="overflow:visible;" width="1024" height="1024" xlink:href="BAF1204B.jpg"  transform="matrix(0.8754 0 0 0.9485 0 -428)">
	</image>
</g>
<g id="Logo_00000138559815765579742880000014803404329876931249_">
	
		<image style="overflow:visible;" width="1250" height="1250" xlink:href="C:\Users\BOOPATHY E\Downloads\Dark Purple And Gold Modern Gold Loan Logo\bpy creation.png"  transform="matrix(0.1874 0 0 0.1887 -713.5092 -262.7258)">
	</image>
	<rect x="1423.7" y="955.2" class="st23" width="234.3" height="271.1"/>
</g>
<image style="overflow:visible;" width="1024" height="1024" xlink:href="BAF1204F.jpg"  transform="matrix(0.895 0 0 0.9038 1225.9867 858.4841)">
</image>
<rect x="-2252.3" y="1216.3" class="st0" width="1726" height="971"/>
</svg>
